<svg xmlns="http://www.w3.org/2000/svg" width="40.64177mm" height="128.49999mm" viewBox="0 0 115.20503 364.25195">
  <title>tonerig-modal-illustrator</title>
  <g id="Layer_2" data-name="Layer 2">
    <g id="layer1">
      <rect id="rect21" x="0.00268" width="115.19999" height="364.25195" style="fill: #e6e6e6"/>
    </g>
  </g>
  <g id="Layer_3" data-name="Layer 3">
    <rect x="64.80267" y="280.80001" width="28.8" height="43.2" rx="4.25197" style="fill: #282422"/>
  </g>
  <g id="svg8">
    <g>
      <path d="M10.74463,133.20021H9.65527v-7.21875h1.08936Z" transform="translate(0.00267 0.00002)" style="fill: #282422"/>
      <path d="M18.15625,133.20021h-1.001l-3.66943-5.29492H13.419v5.29492H12.32959v-7.21875h1.0083l3.67285,5.30078h.0669v-5.30078h1.07861Z" transform="translate(0.00267 0.00002)" style="fill: #282422"/>
      <path d="M19.73877,125.98146h1.08935v3.13672h3.59864v-3.13672h1.09277v7.21875H24.42676v-3.14746H20.82812v3.14746H19.73877Z" transform="translate(0.00267 0.00002)" style="fill: #282422"/>
      <path d="M26.55566,133.20021l2.59766-7.21875h1.25879l2.59766,7.21875H31.85352l-.65918-1.91113H28.37451l-.6626,1.91113Zm4.32129-2.82715L29.8125,127.292h-.05664l-1.06445,3.08105Z" transform="translate(0.00267 0.00002)" style="fill: #282422"/>
      <path d="M34.0459,125.98146h2.57324a2.185,2.185,0,0,1,2.499,2.2627,2.00417,2.00417,0,0,1-1.32519,2.03418l1.60058,2.92187H38.15234l-1.46582-2.73242H35.13477v2.73242H34.0459Zm2.4707,3.54883c1.06152,0,1.50488-.47168,1.50488-1.28613,0-.81739-.44336-1.32911-1.51855-1.32911H35.13477v2.61524Z" transform="translate(0.00267 0.00002)" style="fill: #282422"/>
      <path d="M41.7666,125.98146l2.29785,5.61133h.085l2.29786-5.61133h1.32128v7.21875H46.73242v-5.22363H46.666l-2.12891,5.21289h-.86035l-2.12891-5.2168h-.06738v5.22754H40.44434v-7.21875Z" transform="translate(0.00267 0.00002)" style="fill: #282422"/>
    </g>
    <g>
      <path d="M72.59619,133.20021v-7.21875h2.41113c2.12549,0,3.39795,1.35352,3.39795,3.59863,0,2.25586-1.27246,3.62012-3.47216,3.62012Zm2.27735-.95215c1.646,0,2.46-.959,2.46-2.668,0-1.70214-.814-2.64746-2.39307-2.64746H73.68555v5.31543Z" transform="translate(0.00267 0.00002)" style="fill: #282422"/>
      <path d="M78.87061,133.20021l2.59814-7.21875h1.2583l2.59766,7.21875H84.16846l-.65918-1.91113H80.68945l-.66259,1.91113Zm4.32128-2.82715L82.12744,127.292h-.05615l-1.06445,3.08105Z" transform="translate(0.00267 0.00002)" style="fill: #282422"/>
      <path d="M87.68311,125.98146l2.29785,5.61133h.085l2.29785-5.61133H93.686v7.21875H92.6499v-5.22363h-.06738l-2.12891,5.21289h-.86035l-2.1289-5.2168H87.398v5.22754H86.36182v-7.21875Z" transform="translate(0.00267 0.00002)" style="fill: #282422"/>
      <path d="M95.44775,125.98146H98.021a2.34549,2.34549,0,1,1-.00391,4.68066H96.53662v2.53809H95.44775Zm2.47071,3.75684a1.32135,1.32135,0,0,0,1.50488-1.41993c0-.81835-.44043-1.40332-1.51855-1.40332H96.53662v2.82325Z" transform="translate(0.00267 0.00002)" style="fill: #282422"/>
    </g>
    <g>
      <path d="M45.48389,39.58107h4.47656v.9375H46.57324v2.2002h3.06641v.93359H46.57324v3.14746H45.48389Z" transform="translate(0.00267 0.00002)" style="fill: #282422"/>
      <path d="M51.29687,39.58107h2.57325a2.18522,2.18522,0,0,1,2.499,2.2627A2.00417,2.00417,0,0,1,55.044,43.878L56.644,46.79982H55.40332L53.937,44.06837H52.38623v2.73145H51.29687Zm2.4712,3.5498c1.06054,0,1.50488-.47265,1.50488-1.2871,0-.81739-.44434-1.32813-1.519-1.32813H52.38623v2.61523Z" transform="translate(0.00267 0.00002)" style="fill: #282422"/>
      <path d="M57.69531,39.58107h4.52637v.9375h-3.4375v2.2002h3.20117v.93359H58.78418v2.21h3.47949v.9375H57.69531Z" transform="translate(0.00267 0.00002)" style="fill: #282422"/>
      <path d="M68.74316,46.1797l.97266,1.26856H68.60156l-.61621-.79981a3.253,3.253,0,0,1-1.28711.25c-1.875,0-3.25293-1.40234-3.25293-3.708,0-2.3086,1.37793-3.708,3.25293-3.708,1.86817,0,3.25,1.39941,3.25,3.708A3.78447,3.78447,0,0,1,68.74316,46.1797ZM67.40332,44.46l.69434.90527a2.89847,2.89847,0,0,0,.77246-2.1748c0-1.75879-.93067-2.71387-2.17188-2.71387-1.24414,0-2.1709.95508-2.1709,2.71387s.92676,2.71386,2.1709,2.71386a2.09879,2.09879,0,0,0,.65918-.09863L66.332,44.46Z" transform="translate(0.00267 0.00002)" style="fill: #282422"/>
    </g>
    <g>
      <path d="M20.52393,241.20021h-.9336v-6.1875h.9336Z" transform="translate(0.00267 0.00002)" style="fill: #282422"/>
      <path d="M26.87646,241.20021h-.85791l-3.145-4.53809h-.05762v4.53809h-.9336v-6.1875h.86426l3.14795,4.54395h.05762v-4.54395h.92431Z" transform="translate(0.00267 0.00002)" style="fill: #282422"/>
      <path d="M28.2334,235.01271H29.167v2.68945h3.085v-2.68945h.93653v6.1875H32.252V238.503H29.167v2.69726H28.2334Z" transform="translate(0.00267 0.00002)" style="fill: #282422"/>
      <path d="M34.07666,241.20021l2.22705-6.1875h1.07813l2.22656,6.1875h-.99121l-.56446-1.63769h-2.417l-.56787,1.63769Zm3.70459-2.42285-.91309-2.64063h-.04785l-.91308,2.64063Z" transform="translate(0.00267 0.00002)" style="fill: #282422"/>
      <path d="M40.49707,235.01271h2.206a1.87284,1.87284,0,0,1,2.14161,1.93945A1.71922,1.71922,0,0,1,43.709,238.6963l1.3711,2.50391H44.0166l-1.25683-2.3418H41.43066v2.3418h-.93359Zm2.11816,3.043c.90918,0,1.29-.40527,1.29-1.10352,0-.70117-.38086-1.13867-1.30273-1.13867H41.43066v2.24219Z" transform="translate(0.00267 0.00002)" style="fill: #282422"/>
      <path d="M47.11426,235.01271l1.96972,4.80957h.07325l1.96972-4.80957h1.13282v6.1875h-.88868v-4.47754h-.05664l-1.82519,4.46778H48.752l-1.82519-4.47071h-.05664v4.48047h-.88867v-6.1875Z" transform="translate(0.00267 0.00002)" style="fill: #282422"/>
    </g>
    <g>
      <path d="M67.36816,241.20021v-6.1875h2.06641a3.09772,3.09772,0,0,1-.063,6.1875Zm1.95166-.81543c1.41114,0,2.10889-.82226,2.10889-2.28711,0-1.459-.69775-2.26855-2.05127-2.26855H68.30176v4.55566Z" transform="translate(0.00267 0.00002)" style="fill: #282422"/>
      <path d="M72.74658,241.20021l2.22656-6.1875h1.07862l2.22656,6.1875H77.2876l-.56494-1.63769h-2.417l-.56787,1.63769Zm3.7041-2.42285-.91259-2.64063h-.04834l-.91211,2.64063Z" transform="translate(0.00267 0.00002)" style="fill: #282422"/>
      <path d="M80.30029,235.01271,82.27,239.82228h.07227l1.96972-4.80957h1.13281v6.1875h-.88769v-4.47754h-.05762l-1.82519,4.46875H81.938l-1.8252-4.47168h-.05761v4.48047h-.8877v-6.1875Z" transform="translate(0.00267 0.00002)" style="fill: #282422"/>
      <path d="M86.95557,235.01271h2.20605a2.01074,2.01074,0,1,1-.00391,4.0127H87.88916v2.1748h-.93359Zm2.11816,3.2207a1.13306,1.13306,0,0,0,1.29-1.21777c0-.70019-.37793-1.20215-1.30273-1.20215H87.88916v2.41992Z" transform="translate(0.00267 0.00002)" style="fill: #282422"/>
    </g>
    <g>
      <path d="M47.14355,189.65236h.06934l1.72217-5.04h1.00879l-2.22656,6.1875H46.63867l-2.22656-6.1875h1.00928Z" transform="translate(0.00267 0.00002)" style="fill: #282422"/>
      <path d="M50.52148,191.73048h-.80664l1.99414-7.4082h.80664Z" transform="translate(0.00267 0.00002)" style="fill: #282422"/>
      <path d="M55.94678,190.88478c-1.60742,0-2.78858-1.20215-2.78858-3.17871,0-1.97852,1.18116-3.17773,2.78858-3.17773,1.60156,0,2.78515,1.19921,2.78515,3.17773C58.73193,189.68556,57.54834,190.88478,55.94678,190.88478Zm0-5.50488c-1.06641,0-1.86133.81836-1.86133,2.32617s.79492,2.32617,1.86133,2.32617c1.06347,0,1.86133-.81836,1.86133-2.32617S57.01025,185.3799,55.94678,185.3799Z" transform="translate(0.00267 0.00002)" style="fill: #282422"/>
      <path d="M64.08545,186.625a1.53612,1.53612,0,0,0-1.60352-1.24512c-1.06738,0-1.86425.82519-1.86425,2.32617,0,1.51367.80078,2.32617,1.86035,2.32617a1.54139,1.54139,0,0,0,1.60742-1.22656l.94336.00293a2.46719,2.46719,0,0,1-2.55664,2.07617c-1.60742,0-2.78223-1.19922-2.78223-3.17871,0-1.97852,1.18164-3.17773,2.78223-3.17773a2.44265,2.44265,0,0,1,2.55664,2.09668Z" transform="translate(0.00267 0.00002)" style="fill: #282422"/>
      <path d="M65.83838,184.61232h4.78808v.80371H68.6958v5.38379h-.93066V185.416H65.83838Z" transform="translate(0.00267 0.00002)" style="fill: #282422"/>
    </g>
    <g>
      <path d="M33.292,291.6006H32.3584v-6.1875H33.292Z" transform="translate(0.00267 0.00002)" style="fill: #282422"/>
      <path d="M39.64453,291.6006h-.8584l-3.14453-4.53808H35.584v4.53808h-.93359v-6.1875h.86426l3.14844,4.54395h.05664V285.4131h.9248Z" transform="translate(0.00267 0.00002)" style="fill: #282422"/>
    </g>
    <g>
      <path d="M42.09863,9.60646h.91846v.9668h.08057a1.66557,1.66557,0,0,1,1.65966-1.04785A1.70194,1.70194,0,0,1,46.417,10.57326h.06446a1.9553,1.9553,0,0,1,1.853-1.04785c1.10352,0,1.88526.67285,1.88526,2.12695V15.794H49.269v-4.1416a1.15626,1.15626,0,0,0-1.25683-1.27246,1.29362,1.29362,0,0,0-1.36963,1.38574V15.794h-.9668V11.55568a1.14189,1.14189,0,0,0-1.22461-1.17578,1.46833,1.46833,0,0,0-1.40185,1.54687V15.794h-.95069Z" transform="translate(0.00267 0.00002)" style="fill: #282422"/>
      <path d="M51.66553,12.73244c0-1.9336,1.12793-3.207,2.80371-3.207s2.80371,1.27343,2.80371,3.207c0,1.917-1.12793,3.19043-2.80371,3.19043S51.66553,14.64943,51.66553,12.73244Zm4.65674,0c0-1.24121-.58008-2.35254-1.853-2.35254s-1.853,1.11133-1.853,2.35254c0,1.24023.58008,2.33593,1.853,2.33593S56.32227,13.97267,56.32227,12.73244Z" transform="translate(0.00267 0.00002)" style="fill: #282422"/>
      <path d="M58.43018,12.71584c0-1.94922,1.08007-3.19043,2.64257-3.19043a1.88458,1.88458,0,0,1,1.78907,1.06347h.08007V7.544h.95118v8.25h-.919v-.95117h-.1123a1.91538,1.91538,0,0,1-1.80469,1.08008C59.51025,15.92287,58.43018,14.68166,58.43018,12.71584Zm4.52734-.01563c0-1.38574-.61133-2.32031-1.77148-2.32031-1.209,0-1.80469,1.01465-1.80469,2.32031,0,1.32129.61133,2.36816,1.80469,2.36816C62.32959,15.06837,62.95752,14.10158,62.95752,12.70021Z" transform="translate(0.00267 0.00002)" style="fill: #282422"/>
      <path d="M65.46826,14.03712c0-1.418,1.25293-1.67187,2.40137-1.82031,1.12695-.14551,1.59473-.10449,1.59473-.56445v-.03223a1.14954,1.14954,0,0,0-1.30567-1.25683,1.67258,1.67258,0,0,0-1.61133.93457L65.645,10.9756a2.51425,2.51425,0,0,1,2.48242-1.45019,2.03232,2.03232,0,0,1,2.28711,2.1914V15.794h-.95019v-.83789H69.4165a1.94568,1.94568,0,0,1-1.83789.98242A1.91166,1.91166,0,0,1,65.46826,14.03712Zm3.9961-.48339v-.87012a4.87609,4.87609,0,0,1-1.64356.35449c-.74121.09668-1.40234.32227-1.40234,1.04785,0,.66016.54883.999,1.30566.999A1.5886,1.5886,0,0,0,69.46436,13.55373Z" transform="translate(0.00267 0.00002)" style="fill: #282422"/>
      <path d="M73.10205,15.794h-.95019V7.544h.95019Z" transform="translate(0.00267 0.00002)" style="fill: #282422"/>
    </g>
    <g>
      <path d="M73.29883,291.68459c-1.60742,0-2.78858-1.20215-2.78858-3.17872,0-1.97851,1.18116-3.17773,2.78858-3.17773,1.60107,0,2.78564,1.19922,2.78564,3.17773C76.08447,290.48537,74.8999,291.68459,73.29883,291.68459Zm0-5.50489c-1.06641,0-1.86133.81836-1.86133,2.32617s.79492,2.32618,1.86133,2.32618c1.06347,0,1.86084-.81836,1.86084-2.32618S74.3623,286.1797,73.29883,286.1797Z" transform="translate(0.00267 0.00002)" style="fill: #fefdff"/>
      <path d="M82.15674,285.41212v4.09375a2.47333,2.47333,0,0,1-4.91553,0v-4.09375h.93359v4.07911a1.53493,1.53493,0,0,0,3.04834,0v-4.07911Z" transform="translate(0.00267 0.00002)" style="fill: #fefdff"/>
      <path d="M83.20947,285.41212h4.78809v.80372H86.06689v5.38378h-.93066v-5.38378H83.20947Z" transform="translate(0.00267 0.00002)" style="fill: #fefdff"/>
    </g>
    <g>
      <g>
        <rect x="81.14576" y="350.74957" width="1.64771" height="1.64771" style="fill: #282422"/>
        <rect x="79.49805" y="352.39728" width="1.64771" height="1.64771" style="fill: #282422"/>
        <rect x="77.85034" y="350.74957" width="1.64771" height="1.64771" style="fill: #282422"/>
        <rect x="76.20263" y="349.10186" width="1.64771" height="1.64771" style="fill: #282422"/>
        <rect x="74.55493" y="350.74957" width="1.64771" height="1.64771" style="fill: #282422"/>
        <path d="M82.7908,347.45413v8.23856H74.55226v-8.23856H82.7908m.71717-.71716H73.83509v9.67288H83.508V346.737Z" transform="translate(0.00267 0.00002)" style="fill: #282422"/>
      </g>
      <g>
        <path d="M35.97021,349.461H34.64893v3.60938c0,.80566.40283.93457.82177.93457a1.873,1.873,0,0,0,.419-.04785l.19336.85351a1.96415,1.96415,0,0,1-.709.11328,1.58253,1.58253,0,0,1-1.67578-1.5957V349.461h-.93457v-.80566h.93457v-1.48242h.95069v1.48242h1.32128Z" transform="translate(0.00267 0.00002)" style="fill: #282422"/>
        <path d="M37.04785,351.78127c0-1.9336,1.12793-3.20606,2.80371-3.20606s2.80371,1.27246,2.80371,3.20606c0,1.918-1.12793,3.19043-2.80371,3.19043S37.04785,353.69923,37.04785,351.78127Zm4.65674,0c0-1.24024-.58008-2.35254-1.853-2.35254s-1.853,1.1123-1.853,2.35254c0,1.24121.58007,2.33691,1.853,2.33691S41.70459,353.02248,41.70459,351.78127Z" transform="translate(0.00267 0.00002)" style="fill: #282422"/>
        <path d="M45.05322,354.84279h-.95068v-6.1875H45.021v.9668h.08056a1.8264,1.8264,0,0,1,1.80469-1.04688c1.25293,0,2.09473.75684,2.09473,2.33594v3.93164h-.95069V350.9756a1.36724,1.36724,0,0,0-1.418-1.54687,1.53373,1.53373,0,0,0-1.5791,1.69238Z" transform="translate(0.00267 0.00002)" style="fill: #282422"/>
        <path d="M50.44775,351.79787c0-1.90137,1.11182-3.22266,2.7876-3.22266,1.28906,0,2.65869.78906,2.65869,3.09375v.40234h-4.4917a1.87491,1.87491,0,0,0,1.92969,2.04688,1.51485,1.51485,0,0,0,1.54688-.9668l.91845.25782a2.40646,2.40646,0,0,1-2.46533,1.5625C51.54346,354.9717,50.44775,353.69923,50.44775,351.79787Zm4.4795-.54785a1.67751,1.67751,0,0,0-1.6919-1.82129,1.8479,1.8479,0,0,0-1.833,1.82129Z" transform="translate(0.00267 0.00002)" style="fill: #282422"/>
        <path d="M57.34131,348.65529h.91846v.93457h.06445a1.68378,1.68378,0,0,1,1.61133-1.03125c.14111,0,.39062.00781.49951.0166v.9668a2.86788,2.86788,0,0,0-.58008-.06446,1.46339,1.46339,0,0,0-1.563,1.4502v3.915h-.95068Z" transform="translate(0.00267 0.00002)" style="fill: #282422"/>
        <path d="M61.36768,346.97951a.67756.67756,0,1,1,.67675.64453A.66421.66421,0,0,1,61.36768,346.97951Zm.19336,1.67578h.95068v6.1875H61.561Z" transform="translate(0.00267 0.00002)" style="fill: #282422"/>
        <path d="M64.21875,356.05177l.75732-.53222a1.93574,1.93574,0,0,0,1.77247.93457c.999,0,1.72412-.4668,1.72412-1.498v-1.25684h-.08057a1.88132,1.88132,0,0,1-1.80469,1.04688c-1.49853,0-2.62646-1.0957-2.62646-3.0293,0-1.90136,1.07959-3.1416,2.64258-3.1416a1.9126,1.9126,0,0,1,1.80468,1.06348h.09668v-.9834h.91846v6.36523c0,1.59473-1.19238,2.27149-2.6748,2.27149A2.72631,2.72631,0,0,1,64.21875,356.05177Zm4.27-4.35058c0-1.33789-.61231-2.27246-1.77246-2.27246-1.2085,0-1.80469,1.01562-1.80469,2.27246,0,1.28906.61231,2.1914,1.80469,2.1914C67.86035,353.89259,68.48877,353.07033,68.48877,351.70119Z" transform="translate(0.00267 0.00002)" style="fill: #282422"/>
      </g>
    </g>
    <line x1="0.00252" y1="24.66582" x2="115.20251" y2="25.07474" style="fill: none;stroke: #e34234;stroke-miterlimit: 10;stroke-width: 1.4173228346456692px"/>
    <line x1="0.00276" y1="339.02573" x2="115.20276" y2="338.40878" style="fill: none;stroke: #e34234;stroke-miterlimit: 10;stroke-width: 0.7086614173228346px"/>
  </g>
  <g id="Layer_4" data-name="Layer 4">
    <g>
      <circle cx="57.60267" cy="86.40001" r="28.8" style="fill: #fefdff;stroke: #cecdcf;stroke-miterlimit: 10;stroke-width: 1.44px"/>
      <line x1="57.60267" y1="62.40001" x2="57.60267" y2="72.00001" style="fill: #fefdff;stroke: #282422;stroke-linecap: round;stroke-miterlimit: 10;stroke-width: 1.44000005722046px"/>
    </g>
    <g>
      <circle cx="28.80267" cy="158.39999" r="14.4" style="fill: #282422;stroke: #282422;stroke-miterlimit: 10;stroke-width: 1.44000005722046px"/>
      <line x1="28.80267" y1="146.39999" x2="28.80267" y2="151.19999" style="fill: none;stroke: #fdfdfd;stroke-linecap: round;stroke-miterlimit: 10;stroke-width: 1.44000005722046px"/>
    </g>
    <g>
      <circle cx="86.40267" cy="158.39937" r="14.4" style="fill: #282422;stroke: #282422;stroke-miterlimit: 10;stroke-width: 1.44000005722046px"/>
      <line x1="86.40267" y1="146.39937" x2="86.40267" y2="151.19937" style="fill: none;stroke: #fdfdfd;stroke-linecap: round;stroke-miterlimit: 10;stroke-width: 1.44000005722046px"/>
    </g>
    <circle cx="36.00267" cy="259.19994" r="7.2" style="fill: #3c0"/>
    <circle cx="79.20267" cy="259.2" r="7.2" style="fill: #3c0"/>
    <circle cx="57.60267" cy="208.79975" r="7.2" style="fill: #3c0"/>
    <circle cx="36.00267" cy="309.60001" r="7.2" style="fill: #3c0"/>
    <circle cx="79.20267" cy="309.60001" r="7.2" style="fill: #3c0"/>
  </g>
</svg>
